<svg xmlns="http://www.w3.org/2000/svg" width="25" height="24" viewBox="0 0 25 24" fill="none">
            <path d="M11.7929 15.2929C11.4024 15.6834 11.4024 16.3166 11.7929 16.7071C12.1834 17.0976 12.8166 17.0976 13.2071 16.7071L11.7929 15.2929ZM16.5 12L17.2071 12.7071C17.5976 12.3166 17.5976 11.6834 17.2071 11.2929L16.5 12ZM13.2071 7.29289C12.8166 6.90237 12.1834 6.90237 11.7929 7.29289C11.4024 7.68342 11.4024 8.31658 11.7929 8.70711L13.2071 7.29289ZM8.5 11C7.94772 11 7.5 11.4477 7.5 12C7.5 12.5523 7.94772 13 8.5 13V11ZM21.5 12C21.5 16.9706 17.4706 21 12.5 21V23C18.5751 23 23.5 18.0751 23.5 12H21.5ZM12.5 21C7.52944 21 3.5 16.9706 3.5 12H1.5C1.5 18.0751 6.42487 23 12.5 23V21ZM3.5 12C3.5 7.02944 7.52944 3 12.5 3V1C6.42487 1 1.5 5.92487 1.5 12H3.5ZM12.5 3C17.4706 3 21.5 7.02944 21.5 12H23.5C23.5 5.92487 18.5751 1 12.5 1V3ZM13.2071 16.7071L17.2071 12.7071L15.7929 11.2929L11.7929 15.2929L13.2071 16.7071ZM17.2071 11.2929L13.2071 7.29289L11.7929 8.70711L15.7929 12.7071L17.2071 11.2929ZM8.5 13H16.5V11H8.5V13Z" fill="white"/>
          </svg>