<svg width="72" height="72" viewBox="0 0 72 72" fill="none" xmlns="http://www.w3.org/2000/svg">
<g id="Group">
<path id="Vector" d="M36 51.5491C39.4949 51.5491 42.3281 48.7159 42.3281 45.2209C42.3281 41.726 39.4949 38.8928 36 38.8928C32.5051 38.8928 29.6719 41.726 29.6719 45.2209C29.6719 48.7159 32.5051 51.5491 36 51.5491Z" fill="#2CD4F8"/>
<path id="Vector_2" d="M36 51.5491C30.1847 51.5491 25.4531 56.2807 25.4531 62.0959V72.6428H46.5469V62.0959C46.5469 56.2807 41.8153 51.5491 36 51.5491Z" fill="#2CD4F8"/>
<path id="Vector_3" d="M72 28.346L54.9844 15.985V24.1272H48.6562C44.1228 24.1272 39.5526 25.9542 35.9897 29.8127C34.5941 31.4226 33.5348 33.2603 32.8213 35.2175C33.8308 34.8953 34.8851 34.6741 36 34.6741C38.0759 34.6741 40.0006 35.2975 41.6344 36.3376C43.1479 34.0665 45.7276 32.5647 48.6562 32.5647H54.9844V40.7069L72 28.346Z" fill="#2CD4F8"/>
<path id="Vector_4" d="M31.7813 21.6888C32.5212 22.0135 33.2506 22.3634 33.9484 22.7739C34.6486 23.1586 35.3316 23.6632 36.0116 24.1716C36.7301 23.6313 37.4499 23.1082 38.1877 22.7017C38.842 22.3266 39.5277 22.0101 40.2187 21.7075V17.7991H48.3609L36.0001 0.642883L23.6392 17.7991H31.7813V21.6888Z" fill="#2CD4F8"/>
<path id="Vector_5" d="M28.6035 34.4736L28.8582 33.774C29.7598 31.2974 31.0826 29.0439 32.7866 27.0725C30.0788 25.2752 27.1769 24.1272 23.3438 24.1272H17.0156V15.985L0 28.346L17.0156 40.7069V32.5647H23.3438C25.3455 32.5647 27.156 33.304 28.6035 34.4736Z" fill="#2CD4F8"/>
</g>
</svg>
