<svg width="72" height="72" viewBox="0 0 72 72" fill="none" xmlns="http://www.w3.org/2000/svg">
<g id="Group">
<path id="Vector" d="M70.1542 29.7116L64.7728 29.0383C64.1433 26.6396 63.1944 24.3525 61.9394 22.2087L65.2718 17.9239C65.9254 17.0835 65.8509 15.888 65.0982 15.1354L59.1291 9.16632C58.3763 8.41356 57.181 8.33926 56.3406 8.99266L52.0554 12.3252C49.9108 11.0699 47.6236 10.1212 45.2259 9.49168L44.5526 4.11011C44.4205 3.05381 43.5226 2.26123 42.458 2.26123H36.6304C37.5597 3.98923 38.0879 5.96363 38.0879 8.05921V20.3525C59.0558 20.961 59.0446 51.0974 38.0879 51.7004V63.9937C38.0879 66.0894 37.5597 68.0638 36.6304 69.7917H42.458C43.5225 69.7917 44.4205 68.9991 44.5526 67.9428L45.2259 62.5612C47.6244 61.9317 49.9117 60.9828 52.0555 59.7278L56.3404 63.0602C57.1807 63.7136 58.3762 63.6395 59.1289 62.8866L65.098 56.9175C65.8508 56.1647 65.9252 54.9692 65.2717 54.129L61.9391 49.8441C63.1944 47.6992 64.1432 45.4124 64.7727 43.0146L70.1541 42.3413C71.2104 42.2093 72.003 41.3113 72.003 40.2467V31.8063C72.0031 30.7416 71.2105 29.8437 70.1542 29.7116Z" fill="#2CD4F8"/>
<path id="Vector_2" d="M25.807 0C15.1275 0.407266 15.1355 15.7148 25.8072 16.118C26.9728 16.118 27.918 17.0631 27.918 18.2289C27.918 19.3947 26.9728 20.3398 25.807 20.3398C19.7635 20.3398 14.726 15.9516 13.7125 10.1943C5.97444 9.6148 1.97298 19.3275 7.86947 24.3622C8.49895 24.8992 8.75676 25.7546 8.52864 26.55C8.30066 27.3454 7.62883 27.9342 6.8105 28.056C-2.27319 29.6202 -2.26714 42.4353 6.8105 43.9964C7.62883 44.1183 8.30066 44.7072 8.52864 45.5026C8.75662 46.2979 8.49895 47.1532 7.86933 47.6902C1.9713 52.7288 5.97739 62.4378 13.7125 61.8583C14.7261 56.101 19.7636 51.7128 25.807 51.7128C26.9728 51.7128 27.918 52.6579 27.918 53.8237C27.918 54.9895 26.9728 55.9346 25.807 55.9346C21.3633 55.9346 17.748 59.5498 17.748 63.9937C18.1517 74.6679 33.4618 74.6697 33.866 63.9937V38.1372H27.0782C22.6345 38.1372 19.0192 41.7524 19.0192 46.1963C19.0192 47.362 18.0741 48.3072 16.9083 48.3072C15.7425 48.3072 14.7974 47.362 14.7974 46.1963C14.7974 41.9706 16.9426 38.2368 20.2012 36.0263C16.9426 33.8157 14.7974 30.082 14.7974 25.8563C14.7974 24.6905 15.7425 23.7454 16.9083 23.7454C18.0741 23.7454 19.0192 24.6905 19.0192 25.8563C19.0192 30.3001 22.6345 33.9154 27.0782 33.9154H33.866V8.05905C33.8661 3.61529 30.2509 0 25.807 0Z" fill="#2CD4F8"/>
<path id="Vector_3" d="M49.6933 36.0263C49.6985 29.6603 44.455 24.4792 38.0879 24.5742V47.4784C44.455 47.5734 49.6983 42.3923 49.6933 36.0263Z" fill="#2CD4F8"/>
</g>
</svg>
