<svg width="72" height="72" viewBox="0 0 72 72" fill="none" xmlns="http://www.w3.org/2000/svg">
<g id="Group">
<path id="Vector" d="M17.8913 29.3571C25.7175 29.3571 32.0846 22.9901 32.0846 15.164C31.371 -3.63917 4.40899 -3.63425 3.69824 15.1641C3.69838 22.99 10.0653 29.3571 17.8913 29.3571Z" fill="#2CD4F8"/>
<path id="Vector_2" d="M71.7194 26.4855L57.033 1.04709C56.2496 -0.349241 54.1626 -0.348819 53.3794 1.04709L38.6927 26.4855C37.8752 27.8621 38.9191 29.6694 40.5195 29.6497H69.8926C71.4936 29.6694 72.5368 27.8616 71.7194 26.4855Z" fill="#2CD4F8"/>
<path id="Vector_3" d="M67.5999 39.566H42.7457C41.5807 39.566 40.6362 40.5105 40.6362 41.6755V66.5297C40.6362 67.6947 41.5807 68.6392 42.7457 68.6392H67.5999C68.7649 68.6392 69.7094 67.6947 69.7094 66.5297V41.6755C69.7094 40.5105 68.7649 39.566 67.5999 39.566Z" fill="#2CD4F8"/>
<path id="Vector_4" d="M19.3824 36.8297C18.5588 36.006 17.223 36.0058 16.3992 36.8297L0.616853 52.6122C-0.206826 53.4358 -0.206967 54.7714 0.616712 55.5952L16.4003 71.3779C17.224 72.2016 18.5597 72.2017 19.3836 71.3779L35.1661 55.5954C35.9898 54.7717 35.9899 53.4361 35.1662 52.6123L19.3824 36.8297Z" fill="#2CD4F8"/>
</g>
</svg>
