<svg width="70" height="70" viewBox="0 0 70 70" fill="none" xmlns="http://www.w3.org/2000/svg">
<g id="Content_Manager_1_">
<g id="Group">
<path id="Vector" d="M16.5581 47.0717V55.7443L23.0615 51.408L16.5581 47.0717Z" fill="#2CD4F8"/>
<path id="Vector_2" d="M0.285645 33.1016V69.7143H36.8984V33.1016H0.285645ZM12.4899 63.3439V39.4719L30.395 51.4079L12.4899 63.3439Z" fill="#2CD4F8"/>
</g>
<path id="Vector_3" d="M41.2378 24.9654V69.7143H69.7144V24.9654H41.2378ZM61.5782 61.5781H49.374V57.51H61.5782V61.5781ZM61.5782 53.442H49.374V49.3739H61.5782V53.442ZM61.5782 45.3058H49.374V41.2377H61.5782V45.3058ZM61.5782 37.1696H49.374V33.1016H61.5782V37.1696Z" fill="#2CD4F8"/>
<g id="Group_2">
<path id="Vector_4" d="M10.4618 11.6537L14.5239 15.7158L22.6601 7.57964L36.8984 21.8179V0.285706H0.285645V21.7513L10.4618 11.6537Z" fill="#2CD4F8"/>
<path id="Vector_5" d="M22.6601 13.3322L14.5239 21.4683L10.4499 17.3943L0.285645 27.4813V28.7622H36.8984V27.5704L22.6601 13.3322Z" fill="#2CD4F8"/>
</g>
<g id="Group_3">
<path id="Vector_6" d="M69.7144 20.6261H41.2378V0.285706H69.7144V20.6261Z" fill="#2CD4F8"/>
</g>
</g>
</svg>
