<svg width="21" height="14" viewBox="0 0 21 14" fill="none" xmlns="http://www.w3.org/2000/svg">
<g id="Frame 266">
<path id="Vector" d="M20.6362 0.5H0.63623V13.5H20.6362V0.5Z" fill="#F0F0F0"/>
<g id="Group">
<path id="Vector_2" d="M20.6362 2.12485H0.63623V3.74969H20.6362V2.12485Z" fill="#D80027"/>
<path id="Vector_3" d="M20.6362 5.37494H0.63623V6.99978H20.6362V5.37494Z" fill="#D80027"/>
<path id="Vector_4" d="M20.6362 8.62463H0.63623V10.2495H20.6362V8.62463Z" fill="#D80027"/>
<path id="Vector_5" d="M20.6362 11.8748H0.63623V13.4996H20.6362V11.8748Z" fill="#D80027"/>
</g>
<path id="Vector_6" d="M10.6362 0.5H0.63623V7.50001H10.6362V0.5Z" fill="#2E52B2"/>
<g id="Group_2">
<path id="Vector_7" d="M4.53551 3.36755L4.37445 3.85063H3.85352L4.27504 4.14903L4.11398 4.63207L4.53551 4.33367L4.95676 4.63207L4.79574 4.14903L5.21727 3.85063H4.69629L4.53551 3.36755Z" fill="#F0F0F0"/>
<path id="Vector_8" d="M4.69629 5.59388L4.53551 5.11084L4.37445 5.59388H3.85352L4.27504 5.89232L4.11398 6.37536L4.53551 6.07692L4.95676 6.37536L4.79574 5.89232L5.21727 5.59388H4.69629Z" fill="#F0F0F0"/>
<path id="Vector_9" d="M2.49467 5.59388L2.33385 5.11084L2.17279 5.59388H1.65186L2.07338 5.89232L1.91232 6.37536L2.33385 6.07692L2.75514 6.37536L2.59412 5.89232L3.01557 5.59388H2.49467Z" fill="#F0F0F0"/>
<path id="Vector_10" d="M2.33385 3.36755L2.17279 3.85063H1.65186L2.07338 4.14903L1.91232 4.63207L2.33385 4.33367L2.75514 4.63207L2.59412 4.14903L3.01557 3.85063H2.49467L2.33385 3.36755Z" fill="#F0F0F0"/>
<path id="Vector_11" d="M4.53551 1.62424L4.37445 2.10735H3.85352L4.27504 2.40579L4.11398 2.88883L4.53551 2.59039L4.95676 2.88883L4.79574 2.40579L5.21727 2.10735H4.69629L4.53551 1.62424Z" fill="#F0F0F0"/>
<path id="Vector_12" d="M2.33385 1.62424L2.17279 2.10735H1.65186L2.07338 2.40579L1.91232 2.88883L2.33385 2.59039L2.75514 2.88883L2.59412 2.40579L3.01557 2.10735H2.49467L2.33385 1.62424Z" fill="#F0F0F0"/>
<path id="Vector_13" d="M6.73713 3.36755L6.57611 3.85063H6.05518L6.47666 4.14903L6.31568 4.63207L6.73713 4.33367L7.15846 4.63207L6.9974 4.14903L7.41893 3.85063H6.89799L6.73713 3.36755Z" fill="#F0F0F0"/>
<path id="Vector_14" d="M6.89799 5.59388L6.73713 5.11084L6.57611 5.59388H6.05518L6.47666 5.89232L6.31568 6.37536L6.73713 6.07692L7.15846 6.37536L6.9974 5.89232L7.41893 5.59388H6.89799Z" fill="#F0F0F0"/>
<path id="Vector_15" d="M9.09961 5.59388L8.93879 5.11084L8.77773 5.59388H8.25684L8.67828 5.89232L8.51727 6.37536L8.93879 6.07692L9.36008 6.37536L9.19902 5.89232L9.62055 5.59388H9.09961Z" fill="#F0F0F0"/>
<path id="Vector_16" d="M8.93879 3.36755L8.77773 3.85063H8.25684L8.67828 4.14903L8.51727 4.63207L8.93879 4.33367L9.36008 4.63207L9.19902 4.14903L9.62055 3.85063H9.09961L8.93879 3.36755Z" fill="#F0F0F0"/>
<path id="Vector_17" d="M6.73713 1.62424L6.57611 2.10735H6.05518L6.47666 2.40579L6.31568 2.88883L6.73713 2.59039L7.15846 2.88883L6.9974 2.40579L7.41893 2.10735H6.89799L6.73713 1.62424Z" fill="#F0F0F0"/>
<path id="Vector_18" d="M8.93879 1.62424L8.77773 2.10735H8.25684L8.67828 2.40579L8.51727 2.88883L8.93879 2.59039L9.36008 2.88883L9.19902 2.40579L9.62055 2.10735H9.09961L8.93879 1.62424Z" fill="#F0F0F0"/>
</g>
</g>
</svg>
