<svg xmlns="http://www.w3.org/2000/svg" width="46" height="46" viewBox="0 0 46 46" fill="none">
  <g clip-path="url(#clip0_54_692)">
    <path d="M4.04297 37.9141H6.73828C7.48265 37.9141 8.08594 37.3108 8.08594 36.5664V23C8.08594 22.2556 7.48265 21.6523 6.73828 21.6523H4.04297C1.81021 21.6523 0 23.4626 0 25.6953V33.8711C0 36.1039 1.81021 37.9141 4.04297 37.9141Z" fill="white" fill-opacity="0.7"/>
    <path d="M41.957 21.6523H39.2617C38.5173 21.6523 37.9141 22.2556 37.9141 23V39.2617C37.9141 40.0054 37.3101 40.6094 36.5664 40.6094H29.58C29.0216 39.0441 27.5399 37.9141 25.7852 37.9141H20.3047C18.0754 37.9141 16.2617 39.7278 16.2617 41.957C16.2617 44.1863 18.0754 46 20.3047 46H25.7852C27.5399 46 29.0216 44.8699 29.58 43.3047H36.5664C38.7957 43.3047 40.6094 41.491 40.6094 39.2617V37.9141H41.957C44.1898 37.9141 46 36.1039 46 33.8711V25.6953C46 23.4626 44.1898 21.6523 41.957 21.6523Z" fill="white" fill-opacity="0.7"/>
    <path d="M2.75671 19.0872C3.17365 19.0062 3.60251 18.957 4.04295 18.957H6.73827C7.23311 18.957 7.70198 19.0588 8.14067 19.2224C8.69693 11.5425 15.178 5.39062 23 5.39062C30.822 5.39062 37.303 11.5425 37.8593 19.2224C38.298 19.0588 38.7669 18.957 39.2617 18.957H41.957C42.3975 18.957 42.8263 19.0062 43.2433 19.0872C42.6105 8.49304 33.7532 0 23 0C12.2468 0 3.38948 8.49304 2.75671 19.0872Z" fill="white" fill-opacity="0.7"/>
  </g>
  <defs>
    <clipPath id="clip0_54_692">
      <rect width="46" height="46" fill="white"/>
    </clipPath>
  </defs>
</svg>