<svg width="35" height="48" viewBox="0 0 35 48" fill="none" xmlns="http://www.w3.org/2000/svg">
<g id="Group 1">
<path id="Vector" d="M18.9501 13.2113C18.9201 13.2113 18.8902 13.2136 18.8611 13.2175C18.8281 13.2121 18.7943 13.2098 18.7613 13.2113C18.7314 13.2167 18.7015 13.2167 18.6715 13.2106C18.2979 13.2067 17.9242 13.2213 17.5513 13.2543C17.1784 13.2873 16.8085 13.3379 16.441 13.4078C16.0735 13.4768 15.7098 13.5643 15.3514 13.6702C14.9923 13.7753 14.6394 13.8981 14.2926 14.0385C13.9457 14.1789 13.6066 14.3354 13.2751 14.5096C12.9436 14.683 12.6214 14.8725 12.3091 15.0782C11.9968 15.2838 11.6945 15.504 11.4037 15.7396C11.1129 15.9751 10.8343 16.2237 10.5681 16.4869C10.3018 16.7493 10.0494 17.0248 9.81076 17.3125C9.57136 17.6003 9.34731 17.8995 9.13783 18.2095C8.92836 18.5195 8.73423 18.8387 8.55622 19.1679C8.37821 19.497 8.21707 19.8339 8.07205 20.1792C7.9278 20.5245 7.80043 20.8751 7.69071 21.2334C7.58022 21.591 7.48814 21.9532 7.41448 22.3192C7.34005 22.6859 7.28404 23.0558 7.24644 23.4279C7.20884 23.8001 7.18889 24.173 7.18813 24.5474C7.18429 25.3861 7.26102 26.2178 7.41832 27.0419C7.6838 28.3064 8.13114 29.5042 8.75955 30.6336C9.8637 32.291 11.1558 33.7865 12.6344 35.12C12.8707 35.3364 13.091 35.5674 13.2966 35.8137C13.5015 36.0592 13.6902 36.317 13.8613 36.5871C14.0324 36.858 14.1851 37.138 14.3194 37.4288C14.4537 37.7196 14.5688 38.0174 14.6632 38.3227C14.7583 38.6289 14.8327 38.9396 14.8872 39.255C14.9409 39.5704 14.9739 39.888 14.9862 40.208C14.9985 40.528 14.9893 40.8472 14.9593 41.1656C14.9294 41.4848 14.8788 41.8001 14.8074 42.1117L22.4482 42.1638C22.3799 41.8508 22.3323 41.5347 22.3062 41.2155C22.2794 40.8955 22.274 40.5763 22.2901 40.2563C22.3055 39.9356 22.3423 39.6187 22.4006 39.3033C22.4582 38.988 22.5364 38.678 22.6346 38.3734C22.7336 38.068 22.8518 37.7711 22.9899 37.4818C23.128 37.1925 23.2845 36.914 23.4587 36.6454C23.6337 36.3769 23.8255 36.1206 24.0342 35.8774C24.2421 35.6341 24.4662 35.4055 24.7048 35.1922C26.2026 33.8778 27.5154 32.3984 28.6426 30.7549C29.2825 29.6369 29.7429 28.4491 30.023 27.1915C30.191 26.3682 30.2785 25.5365 30.2846 24.6963C30.2884 24.3226 30.2731 23.9497 30.2401 23.5768C30.2063 23.2046 30.1549 22.8348 30.0851 22.4673C30.0153 22.0997 29.927 21.7368 29.8219 21.3785C29.716 21.0194 29.5933 20.6672 29.4529 20.3204C29.3124 19.9735 29.1551 19.6352 28.981 19.3037C28.8076 18.973 28.618 18.6507 28.4124 18.3384C28.2068 18.0261 27.9865 17.7246 27.751 17.4338C27.5162 17.143 27.2668 16.8644 27.0044 16.599C26.742 16.3327 26.4665 16.0795 26.1788 15.8409C25.8911 15.6015 25.5926 15.3774 25.2834 15.1679C24.9734 14.9585 24.6542 14.7643 24.3258 14.5863C23.9966 14.4083 23.6597 14.2464 23.3152 14.1014C22.9707 13.9564 22.6193 13.829 22.2625 13.7185C21.9049 13.608 21.5435 13.5159 21.1768 13.4408C20.81 13.3663 20.4409 13.3095 20.0696 13.2712C19.6974 13.2328 19.3245 13.2129 18.9501 13.2113ZM27.0098 18.175C28.7646 20.427 29.1367 23.4187 28.3395 26.4871C28.0855 27.4608 27.883 27.3887 27.8707 26.3605C27.8699 26.0467 27.8561 25.7337 27.83 25.4206C27.8032 25.1083 27.764 24.7976 27.7119 24.4883C27.6597 24.1783 27.5945 23.8722 27.517 23.5683C27.4395 23.2645 27.3497 22.9637 27.2469 22.6675C27.1448 22.3706 27.0305 22.079 26.9039 21.792C26.7773 21.5051 26.6392 21.2235 26.4895 20.948C26.3399 20.6725 26.1788 20.4032 26.0069 20.1408C25.8343 19.8784 25.6524 19.6237 25.4591 19.3766C25.2657 19.1295 25.0631 18.8901 24.8498 18.6599C24.6373 18.4297 24.4155 18.208 24.1838 17.9962C23.9529 17.7844 23.7135 17.5819 23.4656 17.3893C23.2178 17.1974 22.9623 17.0156 22.6991 16.8445C22.4367 16.6734 22.1666 16.513 21.8911 16.3642C21.6149 16.2153 21.3325 16.078 21.0456 15.9529C20.7578 15.8271 20.4655 15.7135 20.1685 15.6122C19.8724 15.5109 19.5716 15.4219 19.267 15.3452C18.2794 15.0636 18.2626 14.8595 19.267 14.8533C22.439 14.8227 25.2527 15.9207 27.0098 18.175Z" fill="url(#paint0_linear_2293_262)"/>
<path id="Vector_2" d="M14.0947 42.8874C14.0978 42.9465 14.107 43.0056 14.1216 43.0631C14.1362 43.1207 14.1569 43.1767 14.1822 43.2304C14.2083 43.2841 14.239 43.3348 14.2743 43.3831C14.3103 43.4307 14.3502 43.4744 14.3947 43.5143C14.4392 43.5542 14.4868 43.5887 14.5382 43.6194C14.5896 43.6501 14.6433 43.6747 14.7001 43.6946C14.7561 43.7146 14.8137 43.7284 14.8728 43.7368C14.9319 43.7453 14.9909 43.7483 15.0508 43.7445L22.1706 43.8005C22.2304 43.8036 22.2895 43.8013 22.3486 43.7929C22.4084 43.7852 22.466 43.7714 22.5227 43.7514C22.5788 43.7322 22.6332 43.7069 22.6846 43.677C22.7361 43.6463 22.7844 43.6118 22.8297 43.5719C22.8742 43.5327 22.9148 43.489 22.9509 43.4414C22.987 43.3939 23.0184 43.3432 23.0453 43.2895C23.0714 43.2358 23.0921 43.1805 23.1074 43.1222C23.1235 43.0647 23.1327 43.0064 23.1366 42.9465C23.1335 42.8867 23.1243 42.8284 23.109 42.7708C23.0944 42.7133 23.0737 42.6572 23.0483 42.6035C23.0223 42.5498 22.9916 42.4992 22.9555 42.4516C22.9194 42.404 22.8795 42.3603 22.835 42.3212C22.7905 42.2813 22.743 42.246 22.6916 42.2161C22.6409 42.1854 22.5872 42.16 22.5304 42.1409C22.4744 42.1209 22.4169 42.1063 22.3578 42.0979C22.2995 42.0894 22.2396 42.0871 22.1805 42.0902L15.0646 42.0426C15.0055 42.0388 14.9457 42.0403 14.8866 42.048C14.8275 42.0557 14.7692 42.0695 14.7132 42.0879C14.6564 42.1071 14.6019 42.1316 14.5505 42.1608C14.4983 42.1907 14.45 42.2253 14.4047 42.2644C14.3602 42.3035 14.3195 42.3465 14.2827 42.3941C14.2459 42.4409 14.2144 42.4915 14.1876 42.5452C14.1615 42.5982 14.14 42.6534 14.1247 42.7117C14.1085 42.7693 14.0986 42.8276 14.0947 42.8874Z" fill="#272747"/>
<path id="Vector_3" d="M14.0791 45.0558C14.0829 45.1149 14.0921 45.1732 14.1075 45.23C14.1228 45.2875 14.1436 45.3428 14.1696 45.3957C14.1957 45.4494 14.2272 45.4993 14.2625 45.5469C14.2985 45.5937 14.3392 45.6367 14.3837 45.6758C14.4282 45.7157 14.4758 45.7502 14.5272 45.7794C14.5778 45.8093 14.6316 45.8339 14.6876 45.8538C14.7436 45.873 14.8011 45.886 14.8602 45.8945C14.9185 45.9022 14.9776 45.9045 15.0367 45.9014L22.1488 45.9543C22.2086 45.9582 22.2677 45.9566 22.3276 45.9497C22.3867 45.9421 22.445 45.929 22.5017 45.9098C22.5585 45.8914 22.613 45.8669 22.6652 45.8377C22.7174 45.8078 22.7665 45.7732 22.8117 45.7341C22.857 45.695 22.8977 45.652 22.9345 45.6044C22.9713 45.5576 23.0036 45.507 23.0304 45.4533C23.0573 45.3996 23.0788 45.3443 23.0949 45.2868C23.1102 45.2285 23.121 45.1701 23.1248 45.1103C23.121 45.0512 23.1118 44.9921 23.0964 44.9354C23.0818 44.8778 23.0611 44.8218 23.035 44.7688C23.0089 44.7151 22.9782 44.6645 22.9429 44.6169C22.9069 44.5701 22.867 44.5264 22.8225 44.4865C22.7787 44.4466 22.7312 44.4121 22.6798 44.3814C22.6291 44.3507 22.5754 44.3261 22.5194 44.3062C22.4634 44.2862 22.4058 44.2716 22.3475 44.2624C22.2884 44.254 22.2294 44.2509 22.1703 44.2532L15.0467 44.2103C14.9876 44.2072 14.9277 44.2087 14.8687 44.2164C14.8096 44.2248 14.752 44.2379 14.696 44.2571C14.6392 44.2762 14.5855 44.3008 14.5333 44.3307C14.4819 44.3599 14.4336 44.3944 14.3891 44.4335C14.3438 44.4727 14.3032 44.5164 14.2671 44.5632C14.2303 44.6108 14.1988 44.6607 14.1727 44.7144C14.1459 44.7673 14.1244 44.8226 14.109 44.8801C14.0929 44.9377 14.0829 44.996 14.0791 45.0558Z" fill="#272747"/>
<path id="Vector_4" d="M15.3735 47.1129C15.3766 47.172 15.385 47.2311 15.3996 47.2887C15.415 47.347 15.4349 47.403 15.4602 47.4567C15.4863 47.5104 15.517 47.5618 15.5531 47.6094C15.5884 47.657 15.629 47.7007 15.6735 47.7406C15.7181 47.7805 15.7656 47.815 15.8178 47.8457C15.8692 47.8756 15.9229 47.901 15.9797 47.9201C16.0357 47.9401 16.094 47.9531 16.1531 47.9616C16.2122 47.9692 16.2713 47.9715 16.3311 47.9677L20.8352 47.9976C20.895 48.0022 20.9541 47.9999 21.0132 47.9923C21.0723 47.9854 21.1298 47.9715 21.1866 47.9524C21.2426 47.934 21.2971 47.9094 21.3485 47.8795C21.4007 47.8503 21.449 47.8158 21.4935 47.7767C21.5388 47.7375 21.5787 47.6938 21.6155 47.647C21.6516 47.5994 21.683 47.5495 21.7099 47.4958C21.736 47.4421 21.7567 47.3869 21.772 47.3293C21.7882 47.2718 21.7974 47.2135 21.8012 47.1536C21.7974 47.0945 21.7882 47.0362 21.7728 46.9787C21.7582 46.9219 21.7375 46.8659 21.7114 46.8129C21.6853 46.7592 21.6547 46.7086 21.6194 46.6618C21.5833 46.6142 21.5434 46.5705 21.4997 46.5306C21.4552 46.4914 21.4076 46.4561 21.3569 46.4254C21.3055 46.3955 21.2526 46.3702 21.1966 46.3502C21.1406 46.3303 21.083 46.3157 21.0247 46.3065C20.9664 46.2981 20.9073 46.2942 20.8475 46.2973L16.3388 46.2751C16.2797 46.2704 16.2206 46.272 16.1616 46.2797C16.1025 46.2866 16.0449 46.2996 15.9889 46.3188C15.9321 46.3372 15.8784 46.3618 15.827 46.3909C15.7756 46.4201 15.7273 46.4546 15.682 46.493C15.6375 46.5321 15.5968 46.5751 15.5608 46.6219C15.5239 46.6687 15.4925 46.7193 15.4664 46.7723C15.4395 46.8252 15.4188 46.8804 15.4035 46.938C15.3873 46.9948 15.3781 47.0531 15.3735 47.1129Z" fill="#272747"/>
<g id="Clip path group">
<mask id="mask0_2293_262" style="mask-type:luminance" maskUnits="userSpaceOnUse" x="0" y="0" width="35" height="22">
<g id="65f9c8c618">
<path id="Vector_5" d="M0.0737305 0H34.2523V21.0179H0.0737305V0Z" fill="white"/>
</g>
</mask>
<g mask="url(#mask0_2293_262)">
<g id="Group">
<path id="Vector_6" d="M32.7822 7.12822L32.8129 7.10366L14.7583 0.0690613L0.0737305 12.7111L6.5835 14.9531L7.62166 21.014C8.72196 20.0956 9.91435 19.3168 11.198 18.6791C12.4817 18.0408 13.8222 17.5612 15.2195 17.2389C15.6177 17.1461 16.0228 17.064 16.4249 16.9957C17.4623 16.8123 18.5073 16.7133 19.5608 16.6987C20.6143 16.6834 21.6617 16.7532 22.7037 16.9067C23.7465 17.0609 24.7693 17.2965 25.7737 17.6149C26.7773 17.9341 27.7495 18.3308 28.6902 18.8057L27.6628 12.8047C27.2937 12.5546 26.9146 12.3175 26.5256 12.0942C25.6141 11.5793 24.668 11.1412 23.6866 10.779C22.7045 10.4169 21.7001 10.1353 20.6734 9.935C19.646 9.73397 18.6094 9.61734 17.5636 9.58358C16.5177 9.55058 15.4757 9.60122 14.4383 9.7355C14.6854 9.68409 14.9325 9.62808 15.1788 9.58588C16.2139 9.40326 17.2574 9.30428 18.3078 9.2897C19.359 9.27435 20.4041 9.34341 21.4438 9.49687C22.4835 9.64956 23.5048 9.88436 24.5068 10.2013C25.5089 10.5181 26.4788 10.9133 27.418 11.386L27.4188 11.3867L27.4195 11.3852L31.8284 7.88554L33.2541 13.4293L33.1259 15.6498L34.2239 15.5394L33.2947 13.4216L32.7822 7.12822Z" fill="#272747"/>
</g>
</g>
</g>
</g>
<defs>
<linearGradient id="paint0_linear_2293_262" x1="7.18799" y1="27.6869" x2="30.2852" y2="27.6869" gradientUnits="userSpaceOnUse">
<stop stop-color="#2CD4F8"/>
<stop offset="1" stop-color="#9747FF"/>
</linearGradient>
</defs>
</svg>
