<svg width="65" height="46" viewBox="0 0 65 46" fill="none" xmlns="http://www.w3.org/2000/svg">
<rect x="0.5" y="0.5" width="64" height="45" rx="3.5" fill="white"/>
<rect x="0.5" y="0.5" width="64" height="45" rx="3.5" stroke="#F2F4F7"/>
<path fill-rule="evenodd" clip-rule="evenodd" d="M32.8423 32.2565C30.5787 34.1694 27.6424 35.3242 24.4338 35.3242C17.2745 35.3242 11.4707 29.5748 11.4707 22.4825C11.4707 15.3903 17.2745 9.64087 24.4338 9.64087C27.6424 9.64087 30.5787 10.7957 32.8423 12.7086C35.1059 10.7957 38.0422 9.64087 41.2508 9.64087C48.4101 9.64087 54.2138 15.3903 54.2138 22.4825C54.2138 29.5748 48.4101 35.3242 41.2508 35.3242C38.0422 35.3242 35.1059 34.1694 32.8423 32.2565Z" fill="#ED0006"/>
<path fill-rule="evenodd" clip-rule="evenodd" d="M32.8423 32.2565C35.6295 29.9011 37.3969 26.3963 37.3969 22.4825C37.3969 18.5688 35.6295 15.064 32.8423 12.7086C35.1059 10.7957 38.0422 9.64087 41.2508 9.64087C48.4101 9.64087 54.2139 15.3903 54.2139 22.4825C54.2139 29.5748 48.4101 35.3242 41.2508 35.3242C38.0422 35.3242 35.1059 34.1694 32.8423 32.2565Z" fill="#F9A000"/>
<path fill-rule="evenodd" clip-rule="evenodd" d="M32.8421 32.2566C35.6293 29.9012 37.3967 26.3964 37.3967 22.4827C37.3967 18.5689 35.6293 15.0641 32.8421 12.7087C30.0549 15.0641 28.2876 18.5689 28.2876 22.4827C28.2876 26.3964 30.0549 29.9012 32.8421 32.2566Z" fill="#FF5E00"/>
</svg>
