<svg xmlns="http://www.w3.org/2000/svg" width="46" height="46" viewBox="0 0 46 46" fill="none">
  <g clip-path="url(#clip0_54_708)">
    <path d="M32.3279 22.6311C34.5203 19.5009 35.6791 15.8265 35.6791 12.005V3.48452C35.6791 3.06373 35.3868 2.69909 34.9762 2.60749L23.3751 0.0213204C23.2463 -0.00710679 23.1129 -0.00710679 22.9841 0.0213204L11.3834 2.60749C10.9724 2.69909 10.6804 3.06373 10.6804 3.48452V12.005C10.6804 15.8265 11.8393 19.5009 14.0317 22.6307C16.2241 25.7609 19.2812 28.1056 22.8729 29.4119C22.9718 29.4476 23.0761 29.4659 23.1796 29.4659C23.2835 29.4659 23.3877 29.4476 23.4867 29.4119C27.0783 28.106 30.1355 25.7609 32.3279 22.6311ZM23.1796 27.608C20.0695 26.4088 17.4201 24.3367 15.5036 21.6C13.5238 18.7738 12.4773 15.4559 12.4773 12.005V4.20468L23.1796 1.8189L33.8823 4.20468V12.005C33.8823 15.4555 32.8357 18.7734 30.856 21.6C28.9391 24.3367 26.2897 26.4088 23.1796 27.608Z" fill="white" fill-opacity="0.7"/>
    <path d="M32.3539 6.15005C32.3539 5.7289 32.0619 5.36462 31.6509 5.27302L23.3755 3.42806C23.2467 3.39963 23.113 3.39963 22.9842 3.42806L14.7083 5.27302C14.224 5.38111 13.919 5.86121 14.0271 6.34553C14.1349 6.82984 14.6153 7.13482 15.0993 7.02673L23.1796 5.22564L30.557 6.8702V12.005C30.557 14.7698 29.7186 17.4279 28.1326 19.6926C26.8583 21.5119 25.152 22.9859 23.1796 23.9767C21.2073 22.9863 19.5013 21.5119 18.227 19.6926C16.8551 17.7339 16.0311 15.4443 15.8444 13.0719C15.8286 12.874 15.8174 12.6739 15.8107 12.4767C15.7935 11.9804 15.3748 11.5926 14.8817 11.6095C14.3858 11.6267 13.9977 12.0425 14.0149 12.5384C14.0226 12.762 14.0352 12.9891 14.0528 13.213C14.2647 15.9051 15.1993 18.5022 16.7551 20.7234C18.2919 22.9172 20.3829 24.6691 22.8024 25.7894C22.922 25.8448 23.0512 25.8725 23.18 25.8725C23.3088 25.8725 23.4376 25.8448 23.5573 25.7894C25.9771 24.6688 28.0681 22.9172 29.6045 20.7234C31.4032 18.1554 32.3542 15.1404 32.3542 12.005V6.15005H32.3539Z" fill="white" fill-opacity="0.7"/>
    <path d="M20.6203 16.6689C20.7775 16.8549 21.0031 16.9689 21.2464 16.9851C21.2664 16.9865 21.2864 16.9872 21.3064 16.9872C21.5282 16.9872 21.7433 16.905 21.909 16.7552L28.4226 10.862C28.7904 10.5293 28.8189 9.96109 28.4862 9.59294C28.1531 9.22514 27.5849 9.19672 27.2171 9.52942L21.3924 14.799L19.7299 12.8326C19.4098 12.4539 18.8427 12.4062 18.464 12.7266C18.085 13.047 18.0376 13.6138 18.3577 13.9928L20.6203 16.6689Z" fill="white" fill-opacity="0.7"/>
    <path d="M15.6142 29.7341C15.1407 29.1115 14.4525 28.7157 13.6766 28.6188C12.9006 28.5223 12.1362 28.7367 11.5242 29.2235C11.2378 29.4513 11.0065 29.7243 10.8321 30.0251L10.5682 29.6811C10.3337 29.3761 10.2049 28.9964 10.2049 28.6118V20.5065C10.2049 18.8507 8.85764 17.5034 7.20185 17.5034C5.64432 17.5034 4.35913 18.6728 4.21208 20.223L3.25047 30.3644C3.16589 31.2527 3.41647 32.1339 3.95869 32.8499L11.5954 42.7938V45.1016C11.5954 45.5979 11.9976 46.0001 12.4939 46.0001C12.9898 46.0001 13.3923 45.5979 13.3923 45.1016V42.4884C13.3923 42.2905 13.3267 42.0982 13.2063 41.9413L5.38742 31.7602C5.12105 31.4085 4.99751 30.973 5.03928 30.5339L6.00124 20.3928C6.0602 19.7699 6.57645 19.3003 7.20185 19.3003C7.86725 19.3003 8.40807 19.8415 8.40807 20.5065V28.6118C8.40807 29.3902 8.66918 30.1584 9.14332 30.7754L11.0241 33.2247C11.0269 33.2286 11.0297 33.2324 11.0325 33.2363L12.55 35.2125C12.8525 35.6059 13.4165 35.68 13.8099 35.3778C14.2034 35.0756 14.2774 34.5116 13.9752 34.1179L12.4528 32.1353C12.1001 31.6686 12.1843 30.9947 12.6434 30.6298C12.8739 30.4462 13.1621 30.3655 13.4544 30.4016C13.7468 30.4381 14.0061 30.5876 14.1844 30.8221L17.8115 35.5887C18.5253 36.5268 18.9184 37.6927 18.9184 38.8715V45.1016C18.9184 45.5979 19.3206 46.0001 19.8168 46.0001C20.3131 46.0001 20.7153 45.5979 20.7153 45.1016V38.8715C20.7153 37.3021 20.192 35.7498 19.2416 34.5008L15.6142 29.7341Z" fill="white" fill-opacity="0.7"/>
    <path d="M42.8573 30.3644L41.8953 20.223C41.7482 18.6728 40.4627 17.5034 38.9055 17.5034C37.2497 17.5034 35.9024 18.8507 35.9024 20.5065V28.6118C35.9024 28.9964 35.7733 29.3761 35.5392 29.6811L35.2749 30.0251C35.1008 29.7246 34.8696 29.4516 34.5832 29.2235C33.9711 28.7367 33.2068 28.5223 32.4308 28.6188C31.6548 28.7157 30.9666 29.1115 30.4932 29.7341L26.8661 34.5008C25.9157 35.7498 25.3921 37.3021 25.3921 38.8719V45.1016C25.3921 45.5979 25.7946 46.0001 26.2905 46.0001C26.7868 46.0001 27.189 45.5979 27.189 45.1016V38.8715C27.189 37.6927 27.582 36.5268 28.2959 35.5887L31.923 30.8221C32.1016 30.5876 32.361 30.4385 32.6533 30.4016C32.9456 30.3655 33.2338 30.4462 33.4644 30.6298C33.923 30.9947 34.0076 31.6686 33.6546 32.1353L32.1325 34.1179C31.8303 34.5116 31.9044 35.0756 32.2978 35.3778C32.6912 35.68 33.2552 35.6059 33.5577 35.2125L35.0749 33.2363C35.0777 33.2328 35.0801 33.2293 35.0829 33.2257L36.9644 30.7757C37.4382 30.1584 37.6993 29.3902 37.6993 28.6118V20.5065C37.6993 19.8415 38.2405 19.3003 38.9055 19.3003C39.5309 19.3003 40.0472 19.7699 40.1065 20.3928L41.0684 30.5339C41.1099 30.9733 40.9863 31.4085 40.7235 31.7556L32.9011 41.9413C32.7807 42.0982 32.7154 42.2909 32.7154 42.4888V45.1016C32.7154 45.5979 33.1176 46.0001 33.6139 46.0001C34.1101 46.0001 34.5123 45.5979 34.5123 45.1016V42.7938L42.1522 32.8453C42.6909 32.1339 42.9415 31.2527 42.8573 30.3644Z" fill="white" fill-opacity="0.7"/>
    <path d="M14.4053 10.0713C14.7215 10.2822 15.1496 10.2689 15.4508 10.0369C15.734 9.81859 15.867 9.43745 15.7715 9.09141C15.6694 8.72045 15.3374 8.44811 14.9517 8.42706C14.5699 8.40635 14.2094 8.63938 14.0694 8.9942C13.9157 9.38411 14.0578 9.83754 14.4053 10.0713Z" fill="white" fill-opacity="0.7"/>
  </g>
  <defs>
    <clipPath id="clip0_54_708">
      <rect width="46" height="46" fill="white"/>
    </clipPath>
  </defs>
</svg>