<svg xmlns="http://www.w3.org/2000/svg" width="46" height="46" viewBox="0 0 46 46" fill="none">
  <path d="M42.9772 6.4379C42.8946 5.84481 42.4679 5.35695 41.891 5.1966L23.4028 0.0550196C23.1393 -0.0183399 22.8608 -0.0183399 22.5971 0.0550196L4.10889 5.1966C3.53203 5.35695 3.1053 5.84461 3.02272 6.4379C2.91549 7.20897 0.469173 25.4278 6.74381 34.4911C13.011 43.5436 22.2565 45.8634 22.647 45.9578C22.763 45.9859 22.8813 45.9997 23 45.9997C23.1186 45.9997 23.2369 45.9857 23.3529 45.9578C23.7436 45.8634 32.9891 43.5436 39.2561 34.4911C45.5307 25.428 43.0844 7.20917 42.9772 6.4379ZM34.9225 17.0742L22.3117 29.685C22.0182 29.9785 21.6334 30.1254 21.2487 30.1254C20.8641 30.1254 20.4793 29.9787 20.1858 29.685L12.3887 21.8879C12.1067 21.6061 11.9483 21.2236 11.9483 20.825C11.9483 20.4263 12.1069 20.0439 12.3887 19.7621L13.9368 18.2139C14.5239 17.627 15.4758 17.6268 16.0627 18.2139L21.2487 23.4L31.2485 13.4C31.5303 13.118 31.9127 12.9597 32.3114 12.9597C32.7101 12.9597 33.0925 13.118 33.3743 13.4L34.9225 14.9482C35.5095 15.5353 35.5095 16.4871 34.9225 17.0742Z" fill="white" fill-opacity="0.7"/>
</svg>