<svg width="21" height="20" viewBox="0 0 21 20" fill="none" xmlns="http://www.w3.org/2000/svg">
<g id="Star" clip-path="url(#clip0_332_760)">
<path id="Star_2" d="M10.0383 1.60996C10.2091 1.19932 10.7909 1.19932 10.9617 1.60996L13.0278 6.57744C13.0998 6.75056 13.2626 6.86885 13.4495 6.88383L18.8123 7.31376C19.2556 7.3493 19.4354 7.90256 19.0976 8.19189L15.0117 11.6919C14.8693 11.8139 14.8071 12.0053 14.8506 12.1876L16.0989 17.4208C16.2021 17.8534 15.7315 18.1954 15.3519 17.9635L10.7606 15.1592C10.6006 15.0615 10.3994 15.0615 10.2394 15.1592L5.64806 17.9635C5.26851 18.1954 4.79788 17.8534 4.90108 17.4208L6.14939 12.1876C6.19289 12.0053 6.1307 11.8139 5.98831 11.6919L1.90241 8.19189C1.56464 7.90256 1.74441 7.3493 2.18773 7.31376L7.55054 6.88383C7.73744 6.86885 7.90024 6.75056 7.97225 6.57744L10.0383 1.60996Z" fill="#FDB022"/>
</g>
<defs>
<clipPath id="clip0_332_760">
<rect width="20" height="20" fill="white" transform="translate(0.5)"/>
</clipPath>
</defs>
</svg>
