<svg width="65" height="46" viewBox="0 0 65 46" fill="none" xmlns="http://www.w3.org/2000/svg">
<rect x="0.5" y="0.5" width="64" height="45" rx="3.5" fill="white"/>
<rect x="0.5" y="0.5" width="64" height="45" rx="3.5" stroke="#F2F4F7"/>
<path fill-rule="evenodd" clip-rule="evenodd" d="M20.5517 30.3949H16.614L13.6612 18.7686C13.521 18.2338 13.2234 17.761 12.7857 17.5382C11.6933 16.9782 10.4895 16.5325 9.17627 16.3077V15.8601H15.5197C16.3951 15.8601 17.0517 16.5325 17.1612 17.3134L18.6933 25.6998L22.6291 15.8601H26.4574L20.5517 30.3949ZM28.6461 30.3949H24.9272L27.9895 15.8601H31.7084L28.6461 30.3949ZM36.5197 19.8867C36.6291 19.1039 37.2857 18.6562 38.0518 18.6562C39.2555 18.5439 40.5668 18.7686 41.6612 19.3267L42.3178 16.1973C41.2235 15.7497 40.0197 15.5249 38.9272 15.5249C35.3178 15.5249 32.6914 17.5382 32.6914 20.3324C32.6914 22.458 34.5518 23.5741 35.865 24.2465C37.2857 24.917 37.8329 25.3646 37.7235 26.035C37.7235 27.0407 36.6291 27.4883 35.5367 27.4883C34.2235 27.4883 32.9102 27.1531 31.7084 26.5931L31.0518 29.7244C32.365 30.2825 33.7857 30.5073 35.0989 30.5073C39.1461 30.6177 41.6612 28.6064 41.6612 25.5874C41.6612 21.7856 36.5197 21.5628 36.5197 19.8867ZM54.6763 30.3949L51.7234 15.8601H48.5518C47.8951 15.8601 47.2385 16.3077 47.0197 16.9782L41.5518 30.3949H45.3801L46.1442 28.2711H50.848L51.2857 30.3949H54.6763ZM49.0989 19.7743L50.1914 25.2522H47.1291L49.0989 19.7743Z" fill="#0086C9"/>
</svg>
